<svg id="Layer_1" data-name="Layer 1" xmlns="http://www.w3.org/2000/svg" viewBox="0 0 5000 5000"><defs><style>.cls-1{fill:#fff;}</style></defs><path class="cls-1" d="M2500,0C1119.29,0,0,1119.29,0,2500S1119.29,5000,2500,5000,5000,3880.71,5000,2500,3880.71,0,2500,0ZM340.65,2500c0-1192.58,966.77-2159.35,2159.35-2159.35,730.68,0,1376.59,362.92,1767.32,918.34L3441,2492.5V1253.41H3112.86L1416.4,3786V1253.41H1088.22V4134C630.36,3738,340.65,3152.83,340.65,2500ZM1420,4370.26,3112.86,1843.09v2728A2159.84,2159.84,0,0,1,2500,4659.35C2106.55,4659.35,1737.68,4554.11,1420,4370.26ZM3441,4444.05V3082.17L4451.29,1574c133.4,280.62,208.06,594.58,208.06,926C4659.35,3355.24,4162.15,4094.34,3441,4444.05Z"/></svg>