<?xml version="1.0" encoding="UTF-8"?>
<svg id="Layer_2" data-name="Layer 2" xmlns="http://www.w3.org/2000/svg" viewBox="0 0 551.19 279.89">
  <defs>
    <style>
      .cls-1 {
        fill: #a14353;
      }

      .cls-1, .cls-2, .cls-3 {
        stroke-width: 2.61px;
      }

      .cls-1, .cls-2, .cls-3, .cls-4 {
        stroke: #22171a;
        stroke-linecap: round;
        stroke-linejoin: round;
      }

      .cls-2 {
        fill: #f58240;
      }

      .cls-5 {
        fill: #22181b;
      }

      .cls-3, .cls-4 {
        fill: #f2e3e6;
      }

      .cls-4 {
        stroke-width: 2.61px;
      }
    </style>
  </defs>
  <g id="Layer_1-2" data-name="Layer 1">
    <g>
      <path class="cls-4" d="M1.31,57.76c17.17,72.1,34.34,144.19,51.51,216.29,24.61-10.61,49.22-21.21,73.84-31.82,8.55,11.44,22.99,26.77,44.64,33.54,21.02,6.57,41.34,1.03,81.13-10.32,43.72-12.47,76.3-21.91,92.29-26.55,31.58,1.63,63.17,3.26,94.75,4.89,32.97-30.44,65.94-60.88,98.92-91.32,3.83-37.09,7.65-74.18,11.48-111.27-19.87-2.96-39.74-5.91-59.61-8.87-16.19-10.34-32.38-20.69-48.58-31.03-77.68,11.79-155.36,23.59-233.04,35.38-31.34-5.45-62.67-10.89-94.01-16.34C76.86,32.82,39.08,45.29,1.31,57.76Z"/>
      <g>
        <g>
          <g>
            <path class="cls-2" d="M18.47,66.98c22.9-7.88,45.8-15.75,68.7-23.63-1.76,32.02-3.52,64.04-5.28,96.06,5.19-11.89,10.38-23.77,15.58-35.66,2.97,11.52,5.93,23.03,8.9,34.55,4.82-34.55,9.64-69.09,14.46-103.64,18.91,3.34,37.83,6.69,56.74,10.03-15.58,60.55-31.15,121.1-46.73,181.65-12.24-11.89-24.48-23.77-36.71-35.66-.82,17.18-1.63,34.37-2.45,51.55-9.34,3.87-18.67,7.74-28.01,11.61-15.06-62.29-30.13-124.57-45.19-186.86Z"/>
            <path class="cls-3" d="M246.54,53.61c-14.22-8.69-34.62-5.11-47.84,3.34-10.87,6.95-16,16.63-31.15,76.89-15.22,60.55-14.78,69.63-8.9,78.01,11.24,16.02,36.77,21.52,55.63,15.6,36.93-11.59,44.44-65.75,47.84-90.27,3.11-22.41,9.47-68.27-15.58-83.58ZM213.16,188.45c-8.56,4.76-22.36,2.8-27.81-4.46-5.45-7.25.03-16.36,20.03-66.86,7.87-19.87,11.38-29.48,14.46-28.97,1.19.19,3.59,2.1,4.43,26.87,1.46,43,2.24,66-11.1,73.42Z"/>
            <path class="cls-2" d="M267.46,39.92c8.48,26.93,10.44,50.02,10.62,65.9.05,4.12.15,23.36-4.51,48.05-.83,4.39-4.37,22.53-12.56,44.83-3.01,8.2-6.3,15.89-12.88,31.28-4.35,10.17-8.08,18.59-10.73,24.51,30.84-8.49,61.67-16.99,92.51-25.48-9.08-24.49-18.17-48.98-27.25-73.46,16.01,23.4,32.02,46.81,48.03,70.21,13.07.74,26.14,1.49,39.21,2.23,13.7-70.72,27.4-141.43,41.11-212.15-21.64,3.11-43.29,6.22-64.93,9.32-1.86,42.35-3.72,84.7-5.58,127.04-11.27-40.44-22.53-80.88-33.8-121.32-19.75,3.01-39.49,6.02-59.24,9.03Z"/>
            <path class="cls-2" d="M444.03,16.8c-7.34,38.64-14.68,77.29-22.02,115.93,12.61,8.92,25.22,17.83,37.83,26.75-18.04,23.07-36.08,46.14-54.12,69.21,9.01.32,18.03.65,27.04.97,30.91-27.85,61.81-55.7,92.72-83.55,3.43-31.27,6.87-62.55,10.3-93.82-13.24-2.13-26.48-4.25-39.71-6.38-7.25,19.29-14.51,38.57-21.76,57.86.53-22.1,1.07-44.21,1.6-66.31-10.62-6.88-21.25-13.76-31.87-20.64Z"/>
          </g>
          <path class="cls-5" d="M213.16,188.04c-8.56,4.76-22.36,2.8-27.81-4.46-5.45-7.25.03-16.36,20.03-66.86,7.87-19.87,11.38-29.48,14.46-28.97,1.19.19,3.59,2.1,4.43,26.87,1.46,43,2.24,66-11.1,73.42Z"/>
        </g>
        <path class="cls-1" d="M146.73,218.69c4.28,4.74,16.64,17.16,37.03,21.61,25.47,5.55,45.43-5.28,50.23-8.06-3.97,8.39-7.94,16.77-11.91,25.16-5.98,2.48-20.22,7.42-37.99,4.19-24.58-4.46-38.44-21.37-41.85-25.8,1.5-5.7,3.05-11.55,4.51-17.09Z"/>
      </g>
    </g>
  </g>
</svg>