<?xml version="1.0" encoding="UTF-8"?>
<svg id="Layer_2" data-name="Layer 2" xmlns="http://www.w3.org/2000/svg" viewBox="0 0 440.89 452.84">
  <defs>
    <style>
      .cls-1, .cls-2, .cls-3, .cls-4, .cls-5, .cls-6, .cls-7 {
        stroke-width: 2.14px;
      }

      .cls-1, .cls-2, .cls-3, .cls-4, .cls-6, .cls-7 {
        stroke-miterlimit: 10;
      }

      .cls-1, .cls-3, .cls-5, .cls-6, .cls-7 {
        stroke: #22171a;
      }

      .cls-1, .cls-7 {
        fill: #f2e3e6;
      }

      .cls-2, .cls-3, .cls-5, .cls-6, .cls-7 {
        stroke-linecap: round;
      }

      .cls-2, .cls-4 {
        fill: none;
        stroke: #22181b;
      }

      .cls-3, .cls-5 {
        fill: #f58240;
      }

      .cls-8 {
        fill: #22181b;
      }

      .cls-5 {
        stroke-linejoin: round;
      }

      .cls-6 {
        fill: #a14353;
      }
    </style>
  </defs>
  <g id="Layer_1-2" data-name="Layer 1">
    <g>
      <ellipse class="cls-7" cx="220.45" cy="232.5" rx="219.37" ry="219.27"/>
      <path class="cls-6" d="M203.3,305.32c-18.93,17.78-23.66,49.64-15.26,80,1.48,5.02,2.89,10.47,4.14,16.31,1.18,5.51,2.16,11.1,2.92,16.76,57.46-.61,109.7-23.09,148.84-59.53-4.65-8.82-8.71-18-12.16-27.46-38.42-48.61-99.99-52.81-128.47-26.07Z"/>
      <path class="cls-3" d="M220.45,13.22C99.29,13.22,1.07,111.4,1.07,232.5s98.22,219.27,219.37,219.27,219.38-98.17,219.38-219.27S341.6,13.22,220.45,13.22ZM220.45,407.91c-96.93,0-175.5-78.54-175.5-175.42S123.52,57.08,220.45,57.08s175.5,78.54,175.5,175.42-78.57,175.42-175.5,175.42Z"/>
      <g>
        <path class="cls-3" d="M358.09,215.08c-13.82-62.11-69.07-108.54-135.14-108.54-75.06,0-136.16,59.92-138.4,134.68,5.36,24.09,16.96,45.82,33,63.4-1.56,1.61-2.97,3.35-4.17,5.25-6.12,9.68-5.27,19.75-4.9,22.73.87,7.05,3.7,12.3,5.86,15.5,6.21,8.78,16.41,14.52,27.96,14.52.98,0,1.97-.14,2.93-.11-.09,4.82,1.86,9.39,5.39,12.71,3.48,3.27,7.68,4.64,12.25,5.55,3.62.72,7.26,1.43,10.92,2.01,8.64,1.37,17.35,2.27,26.09,2.63,9.88.41,19.79.13,29.64-.87,6.27-.64,11.36-1.29,14.5-1.71,66.48-10.18,117.41-67.79,117.41-137.34,0-10.44-1.16-20.61-3.33-30.4Z"/>
        <path class="cls-7" d="M242.7,382.52c2.38-3.09,15.26-20.43,10.98-41.98-.72-3.65-3.83-15-12.69-24.41-6.72-7.14-15.44-10.87-23.5-16.16-4.04-2.65-6.88-5.03-7.82-5.81-7.23-6.03-11.86-11.9-14.23-15.15-1.41-1.94-3.5-4.99-5.67-8.95-5.67-10.34-7.74-19.25-8.42-22.5-.4-1.92-1.33-6.77-1.6-13.11-.16-3.84-.01-6.69.16-9.86.24-4.38.74-10.29,1.87-17.34-1.8,3.86-3.81,8.47-5.84,13.73-1.13,2.91-3.25,8.58-5.5,15.95-1.43,4.7-3.4,11.22-5.14,20.02-.32,1.6-1.68,8.61-2.66,18.07-.53,5.13-.8,9.56-.94,13.06-4.82.1-11.02.69-17.98,2.58-11.36,3.07-23.83,8.89-30.36,19.21-6.12,9.68-5.27,19.75-4.9,22.73.87,7.05,3.7,12.3,5.86,15.5,6.21,8.78,16.42,14.52,27.96,14.52.99,0,1.97-.05,2.93-.13,0,0,.02,0,.02,0,0,.02-.01.05-.02.07-.07,4.79,1.88,9.33,5.39,12.63,1.24,1.17,2.58,2.09,3.99,2.83.68.34,1.38.66,2.09.97,1.95.78,4.02,1.32,6.18,1.75,3.62.72,7.26,1.43,10.92,2.01,8.64,1.37,17.35,2.27,26.09,2.63,9.88.41,19.79.13,29.64-.87,1.01-.1,1.98-.21,2.93-.31,2.49-.29,5.96-.7,8.45-1,1.21-.14,2.61-.34,2.61-.34,0,0-.64.08-1.18.16.09-.11.22-.28.38-.49Z"/>
        <path class="cls-2" d="M144.94,362.51c.07,0,.18-.01.32-.03,3.81-.33,7.59-1.17,11.13-2.64,3.45-1.43,6.43-3.7,10.34-3.52,7.44.35,14.7,6.09,21.23,9.3,3.9,1.92,7.95,3.61,12.2,4.55,4.38.98,8.85,1.14,13.31,1.39,3.88.21,7.79-.29,11.51-1.41,6.14-1.86,11.85-5.53,16.13-10.32,1.91-2.15,3.4-4.53,3.4-4.53.39-.62.7-1.16.92-1.56"/>
        <g>
          <path class="cls-4" d="M165.84,341.8c0,4.87.01,9.74.02,14.6"/>
          <path class="cls-8" d="M195.38,312.12c-1.64-2.51-4.2-4.3-6.95-5.48-6.9-2.98-14.88-3.9-22.59-3.94-7.71.04-15.69.97-22.59,3.94-2.75,1.19-5.32,2.97-6.95,5.48-1.17,1.8-1.83,3.95-1.73,6.1.17,3.94,2.76,7.33,5.47,10.2,5.34,5.65,11.95,10.53,19.51,12.65,2.14.6,4.24.88,6.3.9,2.07-.03,4.16-.3,6.3-.9,7.55-2.13,14.17-7,19.51-12.65,2.7-2.87,5.29-6.26,5.47-10.2.09-2.15-.56-4.3-1.73-6.1Z"/>
        </g>
        <g>
          <ellipse class="cls-1" cx="113.05" cy="252.09" rx="35.11" ry="35.23"/>
          <ellipse class="cls-8" cx="96.33" cy="252.09" rx="18.4" ry="18.46"/>
        </g>
        <g>
          <ellipse class="cls-1" cx="258.06" cy="250.35" rx="35.11" ry="35.23"/>
          <ellipse class="cls-8" cx="241.35" cy="250.35" rx="18.4" ry="18.46"/>
        </g>
        <g>
          <path class="cls-5" d="M414.78,5.94c-19.01,3.51-52.94,12.33-87.93,37.03-34.25,24.18-53.81,52.48-63.59,69.08,47.3,14.46,83.86,53.63,94.74,102.52,2.18,9.78,3.33,19.95,3.33,30.4,0,3.09-.11,6.15-.3,9.19,43.33-40.72,70.41-98.62,70.41-162.89,0-10.57-.75-32.87-8.12-59.93-2.82-10.36-5.95-18.97-8.54-25.41Z"/>
          <path class="cls-7" d="M357.1,210.82c39.05-40.21,63.11-95.13,63.11-155.71,0-16.9-1.88-33.35-5.43-49.17-58.91,17.3-107.69,58.4-135.3,112.22,38.18,17.19,67.18,51.21,77.62,92.66Z"/>
        </g>
        <g>
          <path class="cls-5" d="M166.45,118.06c-6.11-16.54-17.77-42-39.95-67.58C104.56,25.18,81.31,10.14,65.92,1.77c-2.9,6.72-6.46,15.87-9.62,27.02-3.06,10.79-8.34,32.57-8.34,60.7,0,47.11,14.55,90.8,39.39,126.81,9.2-43.99,39.15-80.33,79.1-98.23Z"/>
          <path class="cls-7" d="M140.43,133.34C131.51,81.01,104.43,34.9,65.92,1.77c-11.46,26.9-17.81,56.52-17.81,87.63,0,47.04,14.52,90.67,39.29,126.66,7.11-33.7,26.4-62.89,53.03-82.72Z"/>
        </g>
      </g>
    </g>
  </g>
</svg>